<svg xmlns="http://www.w3.org/2000/svg" width="512" height="512"><rect id="backgroundrect" width="100%" height="100%" x="0" y="0" fill="none" stroke="none"/><g class="currentLayer" style=""><title>Layer 1</title><path d="M331.3 308.7L278.6 256l52.7-52.7c6.2-6.2 6.2-16.4 0-22.6-6.2-6.2-16.4-6.2-22.6 0L256 233.4l-52.7-52.7c-6.2-6.2-15.6-7.1-22.6 0-7.1 7.1-6 16.6 0 22.6l52.7 52.7-52.7 52.7c-6.7 6.7-6.4 16.3 0 22.6 6.4 6.4 16.4 6.2 22.6 0l52.7-52.7 52.7 52.7c6.2 6.2 16.4 6.2 22.6 0 6.3-6.2 6.3-16.4 0-22.6z" id="svg_1" class="" fill-opacity="1" fill="#b65252" opacity="0.5"/><path d="M256,75.21259844303131 c48.1,0 93.3,18.7 127.3,52.7 S436,207.11259844303132 436,255.2125984430313 s-18.7,93.3 -52.7,127.3 S304.1,435.2125984430313 256,435.2125984430313 c-48.1,0 -93.3,-18.7 -127.3,-52.7 S76,303.31259844303133 76,255.2125984430313 s18.7,-93.3 52.7,-127.3 S207.9,75.21259844303131 256,75.21259844303131 m0,-28 C141.1,47.21259844303131 48,140.3125984430313 48,255.2125984430313 s93.1,208 208,208 s208,-93.1 208,-208 S370.9,47.21259844303131 256,47.21259844303131 z" id="svg_2" class="selected" fill-opacity="1" fill="#b65252" opacity="0.51"/></g></svg>