<?xml version="1.0" standalone="no"?>
<!DOCTYPE svg PUBLIC "-//W3C//DTD SVG 20010904//EN"
 "http://www.w3.org/TR/2001/REC-SVG-20010904/DTD/svg10.dtd">
<svg version="1.0" xmlns="http://www.w3.org/2000/svg"
 width="200.000000pt" height="200.000000pt" viewBox="0 0 200.000000 200.000000"
 preserveAspectRatio="xMidYMid meet">
<metadata>
Created by potrace 1.11, written by Peter Selinger 2001-2013
</metadata>
<g transform="translate(0.000000,200.000000) scale(0.100000,-0.100000)"
fill="#000000" stroke="none">
<path d="M785 1983 c-364 -78 -666 -371 -761 -738 -24 -93 -25 -112 -21 -275
3 -157 7 -184 31 -260 114 -350 378 -602 723 -691 109 -27 377 -27 486 1 171
43 314 120 435 234 144 136 231 271 288 446 25 78 28 101 32 272 3 166 2 195
-18 270 -47 182 -132 331 -264 464 -136 135 -289 223 -470 269 -84 21 -120 25
-245 24 -89 0 -173 -6 -216 -16z m450 -68 c584 -148 883 -798 614 -1339 -126
-254 -351 -431 -637 -503 -103 -26 -341 -23 -447 6 -185 50 -384 178 -498 320
-143 181 -209 367 -210 596 -1 245 82 463 246 640 90 98 171 158 292 216 208
99 418 120 640 64z"/>
<path d="M927 1843 c-4 -3 -7 -44 -7 -90 0 -82 1 -84 23 -81 18 2 23 10 25 41
l3 38 30 -40 c17 -25 37 -41 49 -41 20 0 21 5 18 87 -3 74 -6 88 -20 91 -15 3
-18 -4 -18 -50 l0 -53 -35 53 c-33 49 -52 61 -68 45z"/>
<path d="M1146 1822 c-13 -21 -37 -155 -30 -162 15 -13 108 -29 118 -20 16 16
-2 37 -39 44 -40 8 -43 30 -4 31 31 0 39 34 10 42 -37 9 -23 23 21 21 32 -2
43 1 46 13 4 23 -109 52 -122 31z"/>
<path d="M733 1796 c-62 -54 -19 -161 64 -159 76 2 109 90 57 152 -33 39 -80
42 -121 7z m72 -22 c44 -17 36 -94 -10 -94 -41 0 -62 69 -27 89 21 13 17 12
37 5z"/>
<path d="M1322 1754 c-29 -20 -28 -52 5 -86 14 -15 24 -30 21 -34 -11 -10 -48
7 -48 22 0 9 -7 14 -17 12 -12 -2 -18 -12 -18 -28 0 -19 10 -30 37 -45 35 -18
40 -19 65 -5 38 21 41 59 8 90 -14 13 -25 27 -25 32 0 14 30 9 36 -7 4 -8 15
-15 25 -15 32 0 23 38 -13 60 -40 24 -47 24 -76 4z"/>
<path d="M590 1738 c0 -7 7 -23 15 -35 15 -21 14 -23 -13 -37 -28 -14 -30 -14
-42 9 -15 28 -38 33 -46 11 -6 -16 64 -142 82 -150 6 -2 17 0 25 5 12 7 11 13
-5 39 -10 17 -16 33 -14 34 9 9 50 27 53 24 1 -2 8 -13 14 -25 13 -26 39 -30
47 -9 8 22 -69 140 -94 144 -13 2 -22 -2 -22 -10z"/>
<path d="M1460 1675 c0 -8 9 -20 19 -27 18 -11 17 -14 -20 -58 -21 -25 -39
-54 -39 -63 0 -32 36 -17 70 28 24 32 39 44 50 39 40 -17 50 -16 50 3 0 12
-19 35 -47 57 -48 38 -83 47 -83 21z"/>
<path d="M347 1543 c-20 -25 -34 -49 -31 -54 3 -5 33 -33 67 -61 l61 -51 38
43 c21 23 38 48 38 56 0 27 -24 26 -50 -3 -32 -35 -55 -34 -38 3 16 35 -4 55
-31 30 -10 -9 -22 -13 -25 -8 -3 5 3 17 14 27 11 10 20 26 20 35 0 35 -27 27
-63 -17z"/>
<path d="M873 1575 c-196 -43 -370 -201 -433 -395 -21 -63 -25 -94 -24 -190 1
-98 4 -125 26 -182 74 -197 224 -334 418 -384 88 -22 253 -16 334 14 169 62
309 201 366 365 27 78 38 237 20 320 -6 32 -30 95 -52 140 -50 99 -151 205
-245 255 -124 65 -274 86 -410 57z m240 -60 c195 -41 366 -211 406 -403 49
-237 -65 -479 -277 -585 -92 -46 -165 -60 -272 -55 -237 13 -430 177 -486 414
-60 255 98 531 349 613 106 34 176 38 280 16z"/>
<path d="M620 1194 c0 -157 59 -214 222 -214 l89 0 -15 29 c-9 16 -27 44 -42
62 -14 19 -6 13 18 -14 23 -26 46 -47 50 -47 4 0 5 15 1 33 -23 126 -124 212
-265 225 l-58 5 0 -79z"/>
<path d="M1243 1251 c-68 -23 -117 -61 -149 -116 -24 -42 -44 -125 -30 -125 3
0 20 15 37 33 l30 32 -26 -39 c-14 -21 -25 -43 -25 -47 0 -13 163 -11 197 2
70 26 101 82 110 200 l6 79 -49 0 c-27 -1 -72 -9 -101 -19z"/>
<path d="M935 1200 c-4 -6 4 -30 18 -54 23 -41 24 -50 19 -167 -4 -122 9 -239
28 -239 27 0 47 193 31 289 -10 59 -9 67 15 112 13 28 22 54 19 59 -12 19 -33
10 -45 -20 -7 -16 -16 -30 -20 -30 -4 0 -13 14 -20 30 -12 30 -33 39 -45 20z"/>
<path d="M771 922 c-54 -27 -74 -63 -79 -138 l-4 -67 58 7 c112 14 183 67 198
152 9 45 2 52 -26 28 -23 -19 -23 -19 -5 2 9 11 17 24 17 27 0 15 -126 7 -159
-11z"/>
<path d="M1064 915 c-24 -96 58 -176 195 -191 l64 -7 -8 59 c-4 32 -13 74 -21
92 -18 44 -79 71 -161 72 -59 0 -63 -2 -69 -25z m31 -15 c10 -11 16 -20 13
-20 -3 0 -13 9 -23 20 -10 11 -16 20 -13 20 3 0 13 -9 23 -20z"/>
<path d="M1614 1490 c-31 -12 -64 -59 -64 -90 0 -40 35 -80 71 -80 22 0 29 5
29 19 0 13 -8 21 -22 23 -19 2 -23 9 -23 38 0 28 5 36 27 44 35 12 58 -6 58
-45 0 -22 5 -29 19 -29 47 0 31 89 -20 115 -31 17 -45 18 -75 5z"/>
<path d="M259 1413 c-11 -13 -10 -17 5 -29 10 -7 24 -15 30 -17 8 -3 7 -12 -2
-31 -9 -21 -17 -26 -30 -21 -32 13 -47 10 -49 -10 -2 -16 12 -27 73 -54 63
-29 77 -32 85 -20 14 22 11 29 -18 41 -16 7 -29 13 -31 14 -1 1 3 13 9 28 9
19 17 25 28 20 9 -4 27 -9 39 -12 20 -4 23 -1 20 19 -2 17 -19 30 -75 55 -64
29 -73 31 -84 17z"/>
<path d="M1658 1290 c-26 -27 -30 -36 -25 -67 8 -49 38 -77 81 -77 94 0 135
84 73 152 -32 34 -90 30 -129 -8z m93 -20 c46 -25 7 -89 -47 -76 -33 9 -34 62
-1 76 29 11 26 11 48 0z"/>
<path d="M180 1224 c-6 -15 -12 -51 -13 -78 -2 -40 1 -51 13 -51 8 0 16 10 18
23 3 22 7 23 45 16 70 -13 101 -11 105 8 2 13 -10 19 -60 30 -57 13 -63 17
-68 43 -7 38 -27 43 -40 9z"/>
<path d="M1664 1105 c-4 -9 -2 -21 4 -27 16 -16 47 -5 47 17 0 26 -42 34 -51
10z"/>
<path d="M294 916 c-9 -24 4 -48 23 -44 24 4 24 52 0 56 -9 2 -20 -4 -23 -12z"/>
<path d="M1807 893 c-4 -3 -7 -14 -7 -24 0 -16 -4 -16 -57 -3 -78 18 -83 18
-83 -9 0 -21 7 -25 63 -36 62 -12 63 -13 59 -42 -4 -24 -1 -29 17 -29 13 0 22
8 26 23 18 81 23 112 19 119 -6 10 -28 11 -37 1z"/>
<path d="M235 838 c-67 -36 -58 -140 15 -163 28 -9 87 12 105 38 54 77 -36
171 -120 125z m85 -53 c17 -21 3 -54 -27 -61 -46 -12 -80 29 -53 61 16 19 64
19 80 0z"/>
<path d="M1630 750 c0 -11 4 -20 8 -20 5 0 16 -6 26 -13 15 -11 16 -17 5 -39
-11 -26 -13 -27 -41 -12 -32 16 -48 12 -48 -14 1 -20 142 -88 159 -78 18 12
12 35 -11 47 -13 6 -24 13 -26 14 -1 1 2 14 9 28 10 22 15 24 35 15 27 -12 54
-5 54 15 0 14 -129 77 -156 77 -8 0 -14 -9 -14 -20z"/>
<path d="M357 673 c-14 -14 -6 -31 17 -37 33 -8 43 -42 20 -67 -33 -36 -93
-14 -80 29 4 13 1 22 -10 26 -24 9 -34 -2 -34 -40 0 -77 87 -111 149 -58 41
34 44 92 6 129 -23 24 -54 32 -68 18z"/>
<path d="M1512 565 c-33 -43 -35 -65 -7 -65 7 0 22 12 33 27 11 16 24 23 31
19 9 -6 9 -11 0 -22 -14 -17 -5 -44 15 -44 7 0 17 8 20 17 5 12 9 14 18 5 9
-9 6 -18 -11 -36 -24 -25 -23 -56 1 -56 12 1 78 79 78 93 0 11 -120 107 -133
107 -7 0 -27 -21 -45 -45z"/>
<path d="M513 441 c-36 -45 -42 -49 -59 -37 -20 15 -44 11 -44 -8 0 -13 97
-96 112 -96 18 0 21 33 3 46 -16 12 -15 17 24 65 23 29 40 57 38 63 -9 26 -37
14 -74 -33z"/>
<path d="M1385 450 c-3 -5 1 -20 9 -32 21 -30 20 -33 -9 -52 -24 -16 -26 -16
-37 9 -11 25 -41 34 -53 16 -9 -16 78 -151 95 -148 15 3 18 29 6 58 -5 11 1
21 19 33 24 16 25 16 37 -9 11 -25 41 -34 53 -16 3 6 -14 41 -37 80 -41 66
-67 86 -83 61z"/>
<path d="M616 388 c-21 -30 -21 -32 14 -72 34 -38 24 -60 -10 -26 -23 23 -50
20 -50 -4 0 -22 49 -56 79 -56 56 0 69 55 24 102 -14 15 -24 30 -21 34 11 10
48 -7 48 -22 0 -19 36 -18 44 2 3 9 -4 25 -19 40 -32 32 -87 33 -109 2z"/>
<path d="M770 340 c0 -14 9 -21 35 -26 44 -8 48 -34 5 -34 -35 0 -43 -29 -10
-37 11 -3 20 -11 20 -18 0 -11 -8 -11 -36 -3 -37 10 -59 -2 -51 -27 4 -12 110
-36 119 -27 9 9 38 124 38 150 0 15 -11 22 -44 31 -63 15 -76 14 -76 -9z"/>
<path d="M1149 331 c-71 -72 4 -185 97 -146 41 17 59 51 50 99 -14 74 -94 99
-147 47z m85 -27 c9 -8 16 -29 16 -45 0 -22 -5 -30 -25 -35 -15 -4 -32 -1 -40
6 -21 17 -19 67 3 79 23 14 28 14 46 -5z"/>
<path d="M937 323 c-4 -3 -7 -44 -7 -90 0 -82 1 -84 23 -81 17 2 23 11 27 42
l5 40 28 -42 c17 -26 35 -42 47 -42 18 0 20 7 20 90 0 82 -2 90 -19 90 -16 0
-20 -8 -23 -46 l-3 -46 -32 46 c-31 43 -51 55 -66 39z"/>
</g>
</svg>
